<svg width="73" height="73" viewBox="0 0 73 73" fill="none" xmlns="http://www.w3.org/2000/svg">
<path d="M36.5 0C56.6633 0 73 16.3367 73 36.5C73 56.6633 56.6633 73 36.5 73C16.3367 73 0 56.6633 0 36.5C0 16.3367 16.3367 0 36.5 0ZM32.2466 21.1347L43.3585 31.7903H16.4839C14.5264 31.7903 12.9516 33.3651 12.9516 35.3226V37.6774C12.9516 39.6349 14.5264 41.2097 16.4839 41.2097H43.3585L32.2466 51.8653C30.819 53.2341 30.7895 55.5153 32.1877 56.9135L33.8067 58.5177C35.1901 59.9012 37.4272 59.9012 38.796 58.5177L58.3264 39.002C59.7099 37.6185 59.7099 35.3815 58.3264 34.0127L38.796 14.4675C37.4125 13.0841 35.1754 13.0841 33.8067 14.4675L32.1877 16.0718C30.7895 17.4847 30.819 19.7659 32.2466 21.1347Z" fill="#20A464"/>
</svg>

